<svg width="120" height="30" viewBox="0 0 120 30" fill="none" xmlns="http://www.w3.org/2000/svg">
<rect width="120" height="30" rx="15" fill="black"/>
<path fill-rule="evenodd" clip-rule="evenodd" d="M94.7066 15.7414L93.1716 17.6366H95.7724V20.9582H86.1127L90.9322 14.9325C91.2733 14.4977 91.6044 13.9294 91.6044 13.3097C91.6044 13.0622 91.5187 12.8385 91.3303 12.662C91.142 12.4678 90.902 12.4083 90.6451 12.4083C90.2343 12.4083 90.0115 12.6427 89.9086 12.7837C89.7785 12.9545 89.6985 13.2238 89.6608 13.5297H85.5987C85.6588 12.2791 86.1058 11.1683 86.7056 10.4861C87.6133 9.46178 89.1552 8.88474 90.7653 8.88474C92.4777 8.88474 93.814 9.48076 94.6528 10.3638C95.15 10.8938 95.7154 11.751 95.7154 13.0398C95.7154 14.0819 95.4132 14.8951 94.7066 15.7414ZM63.5623 15.027H60.3098L60.3101 17.568C59.7221 17.8372 59.2204 17.9723 58.8066 17.9723C58.3163 17.9723 57.875 17.8459 57.4823 17.5932C57.0905 17.3404 56.7823 16.9922 56.5589 16.5486C56.3359 16.1048 56.2242 15.6021 56.2242 15.0403C56.2242 14.4894 56.3332 13.9952 56.5511 13.557C56.769 13.119 57.0742 12.7736 57.4663 12.5205C57.8587 12.2678 58.2943 12.1414 58.774 12.1414C59.2424 12.1414 59.7357 12.2569 60.2531 12.4869C60.7707 12.7175 61.2196 13.0288 61.6014 13.4222L63.7425 10.7424C63.1325 10.1815 62.3775 9.73179 61.4786 9.39441C60.58 9.05733 59.6835 8.88895 58.7903 8.88895C57.559 8.88895 56.453 9.15319 55.4726 9.68106C54.4918 10.2092 53.7239 10.9422 53.1679 11.8803C52.6122 12.8184 52.3345 13.8716 52.3345 15.0403C52.3345 16.2196 52.6013 17.2788 53.135 18.2169C53.669 19.1553 54.4073 19.8911 55.35 20.4245C56.2921 20.958 57.3571 21.2247 58.5449 21.2247C59.3623 21.2247 60.2419 21.0785 61.1846 20.7868C62.127 20.4946 62.9197 20.1242 63.5626 19.6748L63.5623 15.027ZM47.5872 15.2791V9.09625H51.0335V20.958H47.5969L42.4514 14.6342V20.958H38.9882V9.09625H42.5544L47.5872 15.2791ZM65.0647 9.09625H68.8723V17.6922H73.664V20.958H65.0647V9.09625ZM84.6604 9.09625H74.9285V20.958H84.808V17.9797H78.7361V16.5076H84.1182V13.5296H78.7361V12.0748H84.6604V9.09625ZM37.0476 20.9107V9.04927H33.6973H33.6037L23.9757 20.9107H28.6113L33.3136 15.1048L33.3067 20.9107H37.0476Z" fill="white"/>
</svg>
