<svg width="19" height="19" viewBox="0 0 19 19" fill="none" xmlns="http://www.w3.org/2000/svg">
<path d="M0 2.10907C0 1.49774 0.21397 0.993392 0.641892 0.596042C1.06981 0.198675 1.62613 0 2.31081 0C2.98328 0 3.52734 0.195612 3.94305 0.586873C4.37097 0.990347 4.58494 1.51608 4.58494 2.16409C4.58494 2.75097 4.3771 3.24001 3.96139 3.63127C3.53347 4.03475 2.97104 4.23649 2.27413 4.23649H2.25579C1.58333 4.23649 1.03926 4.03475 0.623552 3.63127C0.207845 3.2278 0 2.72039 0 2.10907ZM0.238417 18.1564V5.90541H4.30985V18.1564H0.238417ZM6.56564 18.1564H10.6371V11.3156C10.6371 10.8877 10.686 10.5576 10.7838 10.3253C10.9549 9.90958 11.2148 9.55806 11.5632 9.27075C11.9117 8.98342 12.3488 8.83977 12.8745 8.83977C14.2439 8.83977 14.9286 9.76286 14.9286 11.6091V18.1564H19V11.1322C19 9.32271 18.5721 7.95029 17.7162 7.01496C16.8604 6.07963 15.7294 5.61197 14.3234 5.61197C12.7461 5.61197 11.5174 6.29054 10.6371 7.64768V7.68436H10.6187L10.6371 7.64768V5.90541H6.56564C6.59008 6.29665 6.60232 7.51318 6.60232 9.55502C6.60232 11.5968 6.59008 14.464 6.56564 18.1564Z" fill="#007EBB"/>
</svg>
