<svg width="27" height="17" viewBox="0 0 27 17" fill="none" xmlns="http://www.w3.org/2000/svg">
<path d="M20.8458 10.033C18.7251 10.033 17.3222 8.39626 16.9295 7.75957C17.4313 3.73697 18.9016 2.46905 20.8458 2.46905C22.7668 2.46905 24.2631 4.00487 24.2631 6.25101C24.2631 8.49715 22.7668 10.033 20.8458 10.033ZM20.8458 0C17.389 0 15.4517 2.25432 14.8981 4.57544C14.2683 3.3934 13.8047 1.81191 13.4393 0.342204H8.66143V6.28918C8.66143 8.45011 7.68118 10.0432 5.75815 10.0432C3.83513 10.0432 2.73354 8.45011 2.73354 6.28987L2.75399 0.342204H0V6.28918C0 8.02542 0.563068 9.59942 1.58559 10.7228C2.64083 11.8803 4.08327 12.4918 5.75679 12.4918C9.08203 12.4918 11.4018 9.94163 11.4018 6.29123V2.29522C11.7522 3.61018 12.5743 6.13921 14.1565 8.35672L12.6786 16.7714H15.4789L16.4544 10.8053C16.7748 11.0705 17.1143 11.3104 17.4701 11.5245C18.4036 12.1178 19.4792 12.4495 20.5847 12.485H20.5902C20.6726 12.485 20.7565 12.4897 20.8417 12.4897C24.2699 12.4897 27 9.83528 27 6.25714C27.0007 2.67696 24.2733 0 20.8458 0Z" fill="#00AB00"/>
</svg>
